<svg version="1" xmlns="http://www.w3.org/2000/svg" width="545.333" height="545.333" viewBox="0 0 409.000000 409.000000"><path d="M203.1 19c-1.4.8-.8 4 .7 4 .5 0 1.5-.6 2.1-1.4 1.5-1.7-.8-3.9-2.8-2.6zM212 19.5c-1.6 2-.1 3.8 2.3 2.9 2.1-.8 2.2-1.8.3-3.3-1-.9-1.6-.8-2.6.4zM184.3 20.6c-.9 2.3 1.3 4 3.2 2.4 1.2-1 1.3-1.6.4-2.6-1.5-1.8-2.8-1.8-3.6.2zM193.4 20.1c-.9 1.5 1.1 3.3 3 2.6.9-.4 1.3-1.3 1-2.2-.7-1.7-3-2-4-.4zM220.6 20.7c-.9 2.3 1.6 3.6 3.4 1.7 1.3-1.3 1.3-1.6 0-2.4-2.1-1.4-2.7-1.2-3.4.7zM176.1 21c-1.7 1-.7 4 1.3 4 .7 0 1.6-.6 1.9-1.4.8-1.9-1.5-3.7-3.2-2.6zM229.8 21.2c-.7 1.9.2 3.8 1.7 3.8 1.8 0 2.6-1.5 1.9-3.4-.7-1.9-3-2.1-3.6-.4zM166.7 22.7c-1.4 1.3-.7 3.3 1.1 3.3 2.4 0 3.2-.8 2.5-2.6-.5-1.5-2.5-1.9-3.6-.7zM238.5 23c-.4.7-.3 1.6.3 2.2 1.4 1.4 4.5.2 4-1.5-.6-1.6-3.4-2.1-4.3-.7zM157.4 25.1c-.3.6 0 1.7.8 2.5 1.3 1.3 1.6 1.3 2.8-.1 1.2-1.4 1.1-1.8-.1-2.6-1.9-1.2-2.6-1.1-3.5.2zM247.4 25.1c-.9 1.5 1.1 3.3 3 2.6.9-.4 1.3-1.3 1-2.2-.7-1.7-3-2-4-.4zM193.7 25.6c-.1.1-3.3.5-7.2.8-3.8.4-7.7.9-8.5 1.1-.8.3-2.9.7-4.5.9-1.7.2-6.8 1.3-11.5 2.4-43.8 10.6-82.8 38.6-108.4 77.7-3.9 5.9-14.6 26.3-14.6 27.7 0 .5.6.8 1.4.8.8 0 3-3.4 4.9-7.5 13.8-29 36.8-55 64.2-72.8 39.3-25.4 84.6-33.6 133-24.2 4.5.9 16.1 4.3 24 7.1 14.1 5.1 30.2 13.8 44.5 24.2 10.4 7.6 30.2 27.9 38 39 7 9.9 15.1 24 17.2 29.8 1.4 3.9 4.8 6.7 4.8 3.9 0-2.8-9.4-20.6-16.3-31C341 85.1 319.1 64 299.5 52.4c-2.7-1.6-5.9-3.5-7-4.1-9.6-5.7-35.2-15.9-45-17.9-1.1-.2-4.2-.8-7-1.4-10.5-2.2-21.1-3.2-34.8-3.4-6.5-.1-11.9-.1-12 0zM256.3 27.6c-.8 2.1 1.3 4.2 2.8 2.7 1.3-1.3.5-4.3-1.1-4.3-.6 0-1.3.7-1.7 1.6zM148.6 27.8c-.9 1.4 1.2 3.5 2.8 2.9 2.3-.9 2-3.7-.3-3.7-1.1 0-2.2.4-2.5.8zM141.1 29.9c-1.5 1-.8 4.1.9 4.1 1.5 0 2.5-2.9 1.4-4-.5-.5-1.5-.5-2.3-.1zM264.7 30.4c-.8 1.9 1.5 3.7 3.2 2.6 1.7-1 .7-4-1.3-4-.7 0-1.6.6-1.9 1.4z"/><path d="M181.7 33.6c-47.6 6.7-90 32.6-118.3 72.1-5.8 8.1-17.4 28.8-17.4 31 0 .8 8 .8 8.5 0 .1-.1 1.6-3.1 3.4-6.7 4.1-8.1 14.6-23.9 20.2-30.5 27.6-32.1 62-51.3 104.4-57.9 8.8-1.4 41.9-1.7 44-.4.6.3 3.3.9 6 1.2 20.7 2.8 48.7 14.3 68.5 28.4 10.4 7.3 28 24.2 35.2 33.7 5.9 7.8 10.7 15.4 15.3 24 2 3.9 4.2 7.5 5 8.1 1.3 1 7.5.7 7.5-.3 0-1.6-9.7-19.5-14.1-26.1-11.6-17.3-28-34.3-45-46.4-10.7-7.7-31.6-18.5-43.4-22.4-8.9-2.9-8.5-2.8-17.8-4.9-6.2-1.4-8.9-1.9-15.7-3.1-6.1-1.1-38.1-1-46.3.2zM273.3 33.6c-.8 2 1.7 3.6 3.4 2.2 1-.8 1-1.4.2-2.4-1.5-1.8-2.8-1.8-3.6.2zM131.5 34c-.4.7-.3 1.6.3 2.2 1.4 1.4 4.5.2 4-1.5-.6-1.6-3.4-2.1-4.3-.7zM124.1 37c-1.7 1-.7 4 1.3 4 .7 0 1.6-.6 1.9-1.4.8-1.9-1.5-3.7-3.2-2.6zM281.5 37c-.4.7-.3 1.6.3 2.2 1.4 1.4 4.5.2 4-1.5-.6-1.6-3.4-2.1-4.3-.7zM116.1 40.9c-1.7 1.1-.7 4.1 1.3 4.1 2.1 0 2.7-1.5 1.3-3.3-.8-1.1-1.7-1.4-2.6-.8zM289.6 41.5c-.3.9.1 1.8 1 2.2 1.9.7 3.9-1.1 3-2.6-1-1.6-3.3-1.3-4 .4z"/><path d="M185.4 45.4c.3 2-.1 2.6-1.5 2.6-2.5 0-2.4 1.7.2 2.5 1.2.4 1.8 1.2 1.5 2.1-.3.7-.1 1.6.3 1.9.5.3 1.2-.2 1.5-1.1.5-1.2 1.3-1.4 3.3-.9 2.6.6 2.7.6 1-1.2-1.5-1.8-1.5-2.1 0-4.2 1.5-2.2 1.5-2.3-.6-1.6-1.5.4-2.9.1-4.1-1-1.7-1.6-1.8-1.5-1.6.9zM205.7 44.9c.3 1.4-.2 2.1-1.9 2.7l-2.3.7 2.3 1c1.2.6 2.2 1.9 2.2 3.1.1 2 .1 2 1.5.3.9-1.3 2-1.7 3.5-1.2 2 .6 2.1.5 1-1.5-.9-1.6-.9-2.5-.1-3.3 1.8-1.8 1.3-2.9-.8-1.8-1.4.8-2.2.7-3.1-.4-1.7-2.1-2.9-1.9-2.3.4zM226 44c.4 2.8 0 4-1.5 4-2.3 0-1.8 1.7.6 2.3 1.5.4 2 1.1 1.6 2.1-.8 2 .7 2.1 2.3.1.9-1.1 1.7-1.2 3.3-.3 2.1 1.1 2.1 1 .5-1.4-1.5-2.3-1.5-2.6 0-4.3 1.6-1.6 1.6-1.7-.6-1-1.6.5-3 .1-4.4-1.2-1.6-1.4-2-1.5-1.8-.3zM298.1 45.3c-.5.7-.6 1.8-.2 2.5.9 1.5 4.1.5 4.1-1.3s-2.7-2.6-3.9-1.2zM107.3 46.6c-.7 2 1.7 3.7 3.4 2.3 1.5-1.3.6-3.9-1.3-3.9-.8 0-1.7.7-2.1 1.6zM162.4 49c.1 1.6-.7 2.8-2.2 3.6l-2.3 1.2 2.6.6c2.1.5 2.6 1.2 2.2 2.6-.6 2.3.8 2.7 1.7.5.4-1.1 1.3-1.4 3.3-.9 2.7.6 2.7.6 1.1-1.1-1.5-1.6-1.5-2-.1-4.2 1.5-2.3 1.5-2.3-1-1.4-2.1.8-2.8.6-4-1.2l-1.5-2.2.2 2.5zM244 49.6c0 1.4-.8 2.4-2.2 2.8l-2.3.7 2.3 1.1c1.2.6 2.2 2 2.2 3.2.1 2 .1 2 1.5.3.9-1.3 2-1.7 3.5-1.2 2 .6 2.1.5 1-1.5-.9-1.6-.9-2.5-.1-3.3 1.8-1.8 1.2-2.8-1-1.7-1.7.9-2.3.8-3.5-.7-1.3-1.7-1.3-1.7-1.4.3zM305.3 50.6c-.8 2 1.7 3.6 3.4 2.2 1-.8 1-1.4.2-2.4-1.5-1.8-2.8-1.8-3.6.2zM100.1 51.4c-1 1.2-.8 1.7.8 2.5 2.2 1.2 3.7 0 2.7-2.4-.7-1.9-2-1.9-3.5-.1zM313.7 54.6c-1.5 1.5-.7 4.5 1.1 4.2.9-.2 1.7-1.2 1.7-2.2 0-2-1.6-3.1-2.8-2zM92.3 56.6c-.8 2 1.7 3.6 3.4 2.2 1-.8 1-1.4.2-2.4-1.5-1.8-2.8-1.8-3.6.2zM143.5 57c.5 1.5.1 2.2-1.6 2.9l-2.3.8 2.3 1.2c1.3.7 2 1.8 1.7 2.7-.7 1.8.8 1.8 2.4-.1.9-1.1 1.7-1.2 3.1-.4 2.1 1.1 2.5-.1.7-1.9-1-1-1-1.7 0-3.2 1.7-2.8 1.5-3.2-.9-1.8-1.7 1.1-2.2 1-3.3-.5-1.8-2.3-2.9-2.2-2.1.3zM196.7 55.6c-.1.1-3.3.5-7 .9-7.6.7-7.7.7-16.7 2.8-37.1 8.7-72.4 35-95.4 70.9-2 3.1-3.6 6-3.6 6.3 0 .3 2.9.5 6.4.5 5.3 0 6.6-.3 7.1-1.8.3-.9 1.4-2.7 2.5-4l1.9-2.2 4.3 4 4.3 4h14.3c11.2 0 14.2-.3 13.6-1.3-.4-.6-4.7-6.9-9.6-13.9-4.8-6.9-8.8-13.1-8.8-13.6 0-.8 8.3-8.3 10-9 .3-.1 6 8.3 12.6 18.8l11.9 19h8.9c8 0 8.7-.2 8.1-1.8-.4-.9-3.7-9.8-7.5-19.7-3.7-9.9-8-21-9.4-24.7l-2.6-6.7 2.3-1.3c2.5-1.4 9.7-4.8 10.2-4.8.2 0 4.8 13.3 10.2 29.5l9.8 29.5h13.4l-.4-2.8c-.2-1.5-.6-5-1-7.7-.3-2.8-.8-6.1-1-7.5-.2-1.4-.7-4.9-1-7.9-.4-3-.9-6.3-1.1-7.5-.2-1.2-.6-4.4-.9-7.1-.3-2.8-.8-6.1-1-7.5-.3-1.4-.7-4.5-1-7-.3-2.5-.8-6.2-1.1-8.3-.3-2.6-.1-3.7.8-3.8.7 0 2.4-.2 3.8-.5 6.2-1.1 8-1.2 8.4-.6.2.4.7 3.8 1 7.7.4 3.8.9 8.9 1.1 11.2.2 2.4.7 7.8 1 12 .3 4.3.7 8.9 1 10.3.2 1.4.6 6.3 1 11 .3 4.7.8 9.4 1 10.5.2 1.1.4 2.8.4 3.7.1 1.5 1.1 1.8 6.1 1.8 3.3 0 6.1-.3 6.2-.8.1-.7.2-1.4 1.2-12.2.3-3.6.8-8.5 1.1-11 .8-7.1 2-20.9 3.1-33.3 1-12.7-.1-11.6 9.7-10.2l4.9.7-.6 5c-.4 2.7-1.1 8.2-1.7 12.2-.5 3.9-1.2 9.1-1.5 11.6-.3 2.5-.9 7.2-1.4 10.5-.5 3.3-1.4 10-2 15-.6 4.9-1.3 9.8-1.6 10.7-.5 1.6.3 1.8 6.4 1.8h7l9.7-29.3c5.4-16 9.9-29.3 10-29.5.2-.3 10.4 4.2 12.3 5.4.3.2-15.8 43.2-19.3 51.6-.6 1.6.1 1.8 8.2 1.8h8.9l11.5-18.2c6.3-9.9 11.7-18.6 12.1-19.1.4-.7 2.9.9 6.2 3.7l5.6 4.8-3.3 4.6c-1.9 2.6-6.4 9.1-10.1 14.4l-6.7 9.8h14.5c12.5 0 14.9-.2 16.4-1.8 1-.9 3-2.7 4.4-4l2.5-2.3 2.7 4.1c2.6 3.9 2.7 4 8.6 4 3.3 0 6-.4 6-.8 0-1.2-10.4-16.7-15.3-22.7-11.4-14.1-31.9-31.5-47.4-40.2-14.5-8.1-34.4-14.6-51.4-16.8-5-.7-24.6-1.4-25.2-.9zM262 57c0 1.1-.7 2-1.5 2-2.2 0-1.8 1.7.4 2.3 1.5.3 1.8 1.1 1.5 2.8-.5 2.3-.5 2.3 1 .5.9-1.2 2.3-1.7 3.6-1.3 2.2.6 2.6-.3.8-2.1-.9-.9-.9-1.5 0-2.4 1.9-1.9 1.4-2.6-1.3-2-1.5.2-2.5 0-2.5-.7 0-.6-.4-1.1-1-1.1-.5 0-1 .9-1 2zM320.3 61.6c-.7 1.8 1.7 3.8 3.1 2.4 1.1-1.1.1-4-1.4-4-.6 0-1.3.7-1.7 1.6zM85.7 61.7C84.3 63 85.1 65 87 65c1.3 0 2-.7 2-2 0-1.9-2-2.7-3.3-1.3zM127.1 64.1c-.1 1.9-.8 2.9-2.3 3.3l-2.3.7 2.3.9c1.3.6 2.2 1.8 2.2 3.2.1 2.2.1 2.2 1.5.4.9-1.2 2.2-1.7 3.5-1.3 2.2.6 2.6-.3.8-2.1-.9-.9-.9-1.5 0-2.4 1.9-1.9 1.4-2.8-1.2-1.8-1.9.7-2.5.5-3.4-1.3-1-2.1-1.1-2.1-1.1.4zM278 64.2c0 1.8-.5 2.8-1.5 2.8-.8 0-1.5.4-1.5 1 0 .5.7 1 1.5 1 1.5 0 1.9 1 1.6 4-.1 1 .4.8 1.7-.7 1.3-1.5 2.3-1.8 3.3-1.2 2.4 1.5 3.3 1 1.6-.9-1.5-1.6-1.5-2-.1-4 1.6-2.3.9-2.8-1.6-1.2-1.1.7-2 .4-3.2-1.3l-1.8-2.2v2.7zM327.2 67.3c-1.4 1.6-.6 2.7 2 2.7 1.3 0 1.8-.6 1.6-1.7-.4-2.2-2.2-2.7-3.6-1zM78.4 68.1c-.9 1.5 1.1 3.3 3 2.6.9-.4 1.3-1.3 1-2.2-.7-1.7-3-2-4-.4zM294 74.1c0 1.9-.7 2.9-2.2 3.4l-2.3.8 2.3.4c1.4.3 2.2 1.2 2.2 2.4 0 1 .5 1.9 1 1.9.6 0 1-.5 1-1.1 0-.7 1.2-1 3-.7 2.9.4 2.9.4 1.3-1.4-1.3-1.4-1.4-2.1-.5-3 1.8-1.8 1.4-2.7-.8-2.1-1.3.4-2.6-.1-3.5-1.3-1.4-1.8-1.4-1.8-1.5.7zM333.5 73c-.4.6-.1 1.7.5 2.6 1.5 1.8 4.2 0 3.3-2.2-.6-1.6-2.9-1.9-3.8-.4zM72.1 74.3c-.9 1.1-.8 1.7.5 2.8 1.3 1.1 1.7 1 2.5-.2 1.7-2.8-.9-5.1-3-2.6z"/><path d="M110.7 75c.4 1.4-.1 2.2-1.8 2.9l-2.4 1 2.3.7c1.5.4 2.2 1.4 2.2 3.2v2.6l1.6-2.2c1.2-1.8 1.9-2 3.5-1.2 2.1 1.2 2.6.1.7-1.8-1-1-1-1.7 0-3.3 1.1-1.8 1-1.9-1.1-1.4-1.7.5-2.6.2-3-.9-.9-2.3-2.6-2-2 .4zM339.6 79.8c-.9 1.4 1.2 3.5 2.8 2.9 2.3-.9 2-3.7-.3-3.7-1.1 0-2.2.4-2.5.8zM65.5 81c-.4.7-.3 1.6.3 2.2 1.4 1.4 4.5.2 4-1.5-.6-1.6-3.4-2.1-4.3-.7zM307 84.1c0 1.7-.8 2.9-2.2 3.6l-2.3 1 2.3.7c1.3.5 2.2 1.5 2.2 2.8 0 2 .1 2 2 .3 1-.9 2.6-1.5 3.5-1.2 1.8.8 2-.4.3-2.1-.9-.9-.9-1.5 0-2.4 1.9-1.9 1.4-3-.7-1.8-1.6.8-2.3.6-3.5-1.2l-1.6-2.2v2.5zM96.8 85.5c-.4.4-.4 1.3-.1 2.1.3.8-.4 1.7-1.8 2.2l-2.3.9 2.2 1.2c1.2.6 2.2 2.2 2.3 3.4v2.2l1.1-2.2c.8-1.8 1.6-2.1 3.5-1.7 2.3.6 2.4.5 1.2-1.4-1.1-1.7-1-2.3.2-3.8 1.3-1.5 1.2-1.6-.9-1-1.7.6-2.7.3-3.6-.9-.6-.9-1.4-1.3-1.8-1zM60.1 87.9c-1 1.7-.9 2.2.4 2.7 2.6 1 4.2-1.3 2.3-3.2-1.5-1.5-1.7-1.5-2.7.5zM345.6 86.8c-.9 1.4 1.2 3.5 2.8 2.9 2.3-.9 2-3.7-.3-3.7-1.1 0-2.2.4-2.5.8zM351.5 94c-.8 1.3.3 3 2 3 1.4 0 2.7-2.4 1.8-3.4-1-.9-3.1-.7-3.8.4zM54 96c0 1.3.7 2 2 2s2-.7 2-2-.7-2-2-2-2 .7-2 2zM319 98.8c0 1.2-.9 2.3-2.1 2.7-2.1.7-2.1.7.2 1.9 1.6.8 2.3 1.9 2 3.2-.3 1.8-.3 1.8 1.8 0 1.1-1 2.7-1.6 3.6-1.3 1.8.8 2-.4.3-2.1-.9-.9-.9-1.5 0-2.4 1.8-1.8 1.4-3-.5-1.9-1.3.7-2.3.5-3.5-.6-1.7-1.5-1.8-1.4-1.8.5zM83 101c0 1.1-.7 2-1.5 2-2.2 0-1.8 1.7.5 2.3 1.3.3 1.8 1 1.4 2.1-.3.9-.2 1.6.4 1.6.5 0 1.2-.7 1.6-1.5.4-1.2 1.1-1.3 3.2-.5 2.7 1 2.7 1 1-1.4-.9-1.5-1.2-2.7-.6-3.1 1.8-1.1 1.1-2.7-.9-2-1.1.3-2.2.1-2.6-.5-1-1.7-2.5-1.1-2.5 1zM357.1 100.9c-1.2.8-1.3 1.2-.1 2.6 1.2 1.4 1.5 1.4 2.8.1.8-.8 1.1-1.9.8-2.5-.9-1.3-1.6-1.4-3.5-.2zM49.7 101.7c-.9.9-.9 4.3.1 4.3 1.8-.1 3.4-1.9 2.9-3.4-.7-1.7-1.9-2.1-3-.9zM361.5 109c-.4.7-.3 1.6.3 2.2 1.4 1.4 4.5.2 4-1.5-.6-1.6-3.4-2.1-4.3-.7zM44.7 109.7c-1.4 1.3-.6 3.3 1.3 3.3 1.3 0 2-.7 2-2 0-1.9-2-2.7-3.3-1.3zM331.5 113.1c.3 1.5-.2 2.3-1.5 2.6-2.7.7-2.5 2.3.1 2.3 1.4 0 1.9.5 1.6 1.5-.4.8-.2 1.7.4 2 .5.4 1.2-.1 1.5-.9.4-1.1 1.1-1.3 3-.6 1.5.6 2.4.6 2.4 0s-.4-1-1-1c-1.4 0-1.2-3.4.3-4.9 1-1 .7-1.1-1.5-.6-2.1.5-2.9.3-3.4-.9-.9-2.3-2.4-2-1.9.5zM72.3 113.6c1 1.1-1.2 4.4-3.1 4.5-1 0-.7.4 1 1 1.9.7 2.6 1.6 2.3 3-.5 2.3 1 2.6 1.9.4.4-1.1 1.3-1.4 3.3-.9 2.7.6 2.7.6 1.1-1.2-1.7-1.7-1.7-1.9 0-3.7 1.6-1.9 1.6-2-1.1-1.3-2 .5-2.9.2-3.3-.9-.4-.8-1.1-1.5-1.7-1.5-.6 0-.7.3-.4.6zM365.7 117.4c-.3.8.1 1.7.9 2 2.6 1 3.4.7 3.4-1.4 0-2.3-3.5-2.8-4.3-.6zM39.4 118.1c-.3.6 0 1.7.8 2.5 1.3 1.3 1.6 1.3 2.7 0 .7-.8 1-2 .6-2.6-.8-1.3-3.2-1.3-4.1.1zM370.4 125.1c-.9 1.5 1.1 3.3 3 2.6.9-.4 1.3-1.3 1-2.2-.7-1.7-3-2-4-.4zM35.7 126.4c-.9 2.2 1.8 4 3.3 2.2.6-.9.9-2 .5-2.6-.9-1.5-3.2-1.2-3.8.4zM67.3 126.9c-1.1 1.7-1.7 1.9-3.8 1.1-2.5-.9-2.5-.9-1 1.4 1.1 1.6 1.3 2.6.6 3.1-1.9 1.1-1.2 2.7.9 2 1.3-.4 2.2-.1 2.6.9.8 2.1 2.6 2 2.2-.1-.2-1 .7-2.2 2.2-3 2.2-1.1 2-1.4-.7-1.3-.5.1-1-1.3-1.3-3-.5-2.9-.6-3-1.7-1.1zM341.4 127.8c.5 1.3-.1 2.2-1.6 3l-2.3 1.1 2.3.7c1.7.5 2.2 1.2 1.9 2.5-.6 2.2 1.1 2.6 1.9.4.4-1 1.4-1.3 3.3-.9 2.5.6 2.5.6.9-1.1-1.5-1.6-1.5-2-.1-4.2 1.5-2.3 1.5-2.3-1.1-1.3-2.1.8-2.8.7-3.2-.5-.9-2.2-2.6-1.8-2 .3zM374 133.9c0 1.1.4 2.2.8 2.5 1.4.9 3.5-1.2 2.9-2.8-.9-2.3-3.7-2-3.7.3zM32.2 134.3c-1.4 1.6-.6 2.7 2 2.7 1.3 0 1.8-.6 1.6-1.7-.4-2.2-2.2-2.7-3.6-1zM25.1 148c-1.3.8-1 115 .3 115.1.6.1 82.5.2 181.9.2 159.9.2 181 0 181.6-1.3.9-2.1.6-112.8-.3-113.7-.8-.9-362.3-1.1-363.5-.3zm221.3 22.4c20.2 5.9 26.6 30.8 11.9 46-5.2 5.4-11.2 7.9-18.6 7.9-7.9.1-10.6-.6-15.3-3.6-8.6-5.5-13.4-13.7-13.5-23.1-.3-19.2 17.2-32.5 35.5-27.2zM54.6 188.5c3.5 9.9 6.4 18.6 6.4 19.3 0 2.7 1.9 0 3.5-5.1.9-2.8 1.9-5.9 2.2-6.7.4-.8 2.5-6.9 4.8-13.5l4.2-12h13.8v53h-10v-18.7c0-10.2-.3-18.4-.7-18.2-.5.3-.8 1.1-.8 1.8s-2.3 7.7-5.1 15.7c-7.6 21.9-6.5 19.9-11.1 19.6l-4.1-.3L52 207c-3.2-9.1-6.2-17.6-6.7-18.9-.7-1.6-.9 3.6-.8 15.8 0 10-.2 18.5-.5 19-.4.7-6.1.8-9.2.2-.9-.1-1.1-51.5-.2-52.3.3-.3 3.5-.5 7.1-.4l6.6.1 6.3 18zm73.2-10.6c1.7 4.2 6.5 15.7 10.7 25.6 4.2 9.9 7.7 18.4 7.8 19 .1.5-2.2.9-5.2 1h-5.4l-2.6-6.5-2.6-6.5h-19.9L108 217l-2.6 6.4-5.2.2c-2.9 0-5.2-.4-5.2-.9 0-1.1 18.3-45.3 20.6-49.9 1.2-2.2 2-2.7 5.3-2.6h3.9l3 7.7zm50.7-5.3c6.1 3.2 8 6.4 8.2 14.1.2 8.7-2.3 13-9.2 15.9-4 1.6-4.1 1.4 2 9.4 2.3 3 5.1 6.9 6.2 8.6l2.2 3h-12.1l-6.7-9.7c-3.6-5.4-6.8-9.8-7.1-9.9-.3 0-.5 4.4-.5 9.7v9.8h-10l-.1-26c-.1-14.3 0-26.3.3-26.7.2-.4 5.4-.6 11.6-.5 9 .2 12 .7 15.2 2.3zm25.1 24.3l-.1 26.6h-10l-.1-26c0-14.3.1-26.3.3-26.6.1-.4 2.4-.6 5.1-.6h4.9l-.1 26.6zm94.9-21.9c0 4.9.6 4.5-8 4.9-1.9.1-2 .8-2 21.8v21.7l-4.9.1h-5v-21.8c0-23.9.5-22.1-6.3-21.7l-3.3.2v-9.9l14.8.1 14.7.1v4.5zm31.7-4.4c1.3.4 1.7 1.5 1.5 4.7l-.3 4.2-7.5.2c-4 0-8.2.2-9.2.2-1.6.1-1.8.9-1.5 6.3l.3 6.3h17l.3 4.8.3 4.7H313v11.9l9.3.3 9.2.3v9h-14.2l-14.3.1-.1-3.1v-44.1l.1-6 12.8-.2c7 0 13.5.1 14.4.4zm21.9 2.2v10.4c0 4.3.3 7.8.8 7.8.4 0 3.8-4.2 7.4-9.4 3.7-5.1 7.2-9.8 7.9-10.4 1.3-1 11.8-1.5 11.8-.6 0 .6-15.6 21.1-17.7 23.2-.7.7-1.3 1.8-1.3 2.4 0 .6 4.3 6.8 9.5 13.8 5.2 7 9.5 12.9 9.5 13.2 0 .3-2.6.4-5.7.4l-5.8-.1-7.5-10.7c-4.1-5.9-7.8-10.7-8.2-10.7-.4-.1-.7 4.1-.7 9.1.1 5.1 0 10 0 10.9-.1 1.3-1.2 1.6-5.1 1.5h-5v-53.4h5c4.8-.1 5 0 5.1 2.6z"/><path d="M231.5 180.5c-4.5 2.1-6.1 3.7-8.5 8.4-4.5 8.5-.8 19.7 8.1 24.4 7.7 4.1 19 .2 22.9-7.9 6-12.1-2.1-26.3-15-26.3-2.5 0-5.8.6-7.5 1.4zM117.6 191.7c-1.4 3.8-2.6 7.3-2.6 7.8 0 .6 2.5 1 5.5 1 3.3 0 5.5-.4 5.5-1.1 0-1-4.8-13.5-5.5-14.2-.2-.2-1.5 2.8-2.9 6.5zM163.5 179.9c-1.8.5-2 1.4-2 7.1.1 7.7.5 8.7 4.2 8.5 7.7-.3 11.3-3 11.3-8.4 0-4.5-8-8.7-13.5-7.2zM150.7 269.9c-1.2 4.6.9 18.5 3.7 24.6 2.6 5.6 8.1 11.5 10.8 11.5 1 0 1.8.6 1.8 1.2.1.7.2 7.8.3 15.8.2 13.6.4 14.9 3 20.2 4.7 9.5 15.4 16.8 29.5 20.1 6.6 1.5 8.4 1.4 15.7-1 13.4-4.3 22.1-11 26.3-20.2 2.2-4.8 2.5-6.6 2.6-20.3l.1-15 3.1-1.3c7.7-3.2 12.7-14.3 12.8-28.5l.1-8.5-54.7-.1c-48.9 0-54.7.1-55.1 1.5zM33.1 275c-1.4.8-.8 4 .7 4 .5 0 1.5-.6 2.1-1.4 1.5-1.7-.8-3.9-2.8-2.6z"/><path d="M39 274.5c0 1.6 8.5 18.4 13 25.5 40.4 64.6 114.1 96.6 188.9 82 20.1-3.9 46.2-14.4 60.4-24.3 17.1-11.8 21.1-15.1 31.2-25.3 14.2-14.3 24.1-28 33.6-46.7 5-9.7 5.7-11.7 4.2-11.7-1.3 0-3.2 2.8-6.6 9.9-9.8 20.3-27 42.4-44.1 56.6-6.6 5.5-21.3 15.9-26.1 18.6-16.6 9-36.7 17-46.2 18.4-1.1.2-2.9.6-4 .9-1 .3-3.4.8-5.3 1.1-1.9.3-4.2.8-5 1-8.3 2.2-41.3 2.3-54.5.1-16.6-2.8-21.7-4.1-35.3-9.2-41.3-15.5-75.3-45.8-95.4-85.2-3.4-6.7-6.8-12.2-7.5-12.2-.7 0-1.3.2-1.3.5z"/><path d="M46 274.5c0 1.6 10 20 14.3 26.5 17 25.3 39.5 45.5 65.6 58.9 8.6 4.4 26 11.5 31.1 12.6.8.2 4.7 1.1 8.5 2 25.2 6.1 55 5.9 81.5-.5 40.8-9.9 78.8-36.7 102.2-72 5.9-8.9 13.1-21.9 14.2-25.8.7-2 .4-2.2-3.3-2.2-4 0-4.1.1-7.5 6.7-3.6 7.1-13.4 22.4-18.2 28.3-5.3 6.5-21.8 22.7-28.4 27.7-20.4 15.8-50.3 29-72 31.9-2.5.3-6.5 1-9 1.4-4.8.9-37.9.6-44.4-.5-27.5-4.3-57.8-17.6-79.1-34.8-17.3-14-35.8-37-44.7-55.7-2.2-4.8-2.4-5-6.5-5-2.4 0-4.3.2-4.3.5z"/><path d="M62 275c0 1.6 10.7 17.9 16.8 25.5 8.9 11.1 16.6 19.1 26.7 27.6 2.2 1.9 4.2 3.7 4.5 4 .3.3 4.8 3.5 10 7.1 10.4 7.1 23.6 14 34.7 18.1 9.3 3.4 16.8 5.3 27.8 7.2 1.7.3 4.4.8 6 1.1 1.8.3-.2-1.1-5-3.5-10.6-5.2-16.7-10.7-20.5-18.4-3.5-7.4-3.8-8.6-4-19.7l-.2-8.5-4 12.5c-2.2 6.9-4.1 12.7-4.3 12.8-.6.6-13.5-6-13.5-6.9 0-.5 2.7-8.1 6-17.1 3.3-8.9 6-16.8 6-17.6 0-.8-.9-2.5-2-3.9-2.2-2.8-6-14.1-6-17.8 0-1.3-.4-2.6-.8-2.9-.5-.3-5.2 6.8-10.7 15.7-5.4 8.9-11.1 18.2-12.6 20.6-1.6 2.5-2.9 4.8-2.9 5.3 0 1.9-2.9.4-7.9-4.2l-5.4-5 10.6-16c5.9-8.8 10.7-16.2 10.7-16.4 0-.3-6.9-.5-15.3-.5l-15.3-.1-4.9 4.4c-2.8 2.5-5.2 4.5-5.5 4.5-.3 0-1.7-2-3.2-4.4l-2.7-4.5h-6.6c-3.7 0-6.5.4-6.5 1zM270.5 278.3c-.4 2.3-.9 5.1-1.2 6.1-.5 3-4.2 10.9-5.9 12.7-1.3 1.4-.7 3.5 5.1 19.4 3.6 9.8 6.4 17.9 6.3 18-1.2 1-13.1 6.5-13.4 6.2-.9-.9-7.4-21.2-7.4-23.1 0-1-.3-1.7-.6-1.3-.4.3-.8 4.8-.9 9.9-.4 10.5-2 15.9-6.7 22.4-3.4 4.7-13.5 12-20.2 14.6-6.6 2.5-2.6 2.7 8.9.3 13.7-2.8 24.3-6.4 36.3-12.2 28.8-14 54.6-37.5 73.6-67.2 6.9-10.7 6.9-10.2-1.1-10l-6.9.1-2.8 4.4c-1.5 2.4-3.1 4.4-3.4 4.4-.4-.1-2.7-2.1-5.2-4.5l-4.5-4.5-15.8.1c-12.2 0-15.6.3-15 1.2.5.7 5.4 8 11 16.4l10.2 15.1-5.4 5.1c-2.9 2.8-5.7 5.1-6.2 5.1s-6.6-9.4-13.6-21c-7.1-11.5-13.2-21.2-13.6-21.5-.5-.2-1.2 1.4-1.6 3.8zM374.7 274.7c-1.4 1.3-.6 3.3 1.3 3.3 1.3 0 2-.7 2-2 0-1.9-2-2.7-3.3-1.3zM36.7 283.3c-1.1.8-1.4 1.7-.8 2.6 1.1 1.7 4.1.7 4.1-1.3 0-2.1-1.5-2.7-3.3-1.3zM370.7 283.4c-.9 2.2 1.8 4 3.3 2.2.6-.9.9-2 .5-2.6-.9-1.5-3.2-1.2-3.8.4zM366.6 290.9c-.7 1 .3 4.1 1.3 4.1 1.7-.1 3.1-1.8 2.5-3.3-.7-1.8-2.9-2.3-3.8-.8zM40.2 292.7c.5 2.6 3.8 2.9 3.8.4 0-1.5-.6-2.1-2.1-2.1-1.4 0-1.9.5-1.7 1.7zM45.1 299.4c-1.4 1.7-.7 3.6 1.4 3.6 2.2 0 2.9-2 1.3-3.6-1.3-1.3-1.6-1.3-2.7 0zM362.3 299.6c-.8 2.1 1.3 4.2 2.8 2.7 1.3-1.3.5-4.3-1.1-4.3-.6 0-1.3.7-1.7 1.6zM50.2 306.8c-1.2.8-.7 4.2.7 4.2s2.9-2.3 2.4-3.6c-.6-1.6-1.3-1.7-3.1-.6zM357 308c0 1.3.7 2 2 2s2-.7 2-2-.7-2-2-2-2 .7-2 2zM352.1 314.4c-.9 1-.8 1.6.4 2.6 1.9 1.6 4.1-.1 3.2-2.4-.8-2-2.1-2-3.6-.2zM54.4 315.1c-.9 1.5 1.2 3.3 3 2.6.9-.4 1.6-1.3 1.6-2.2 0-1.7-3.5-2.1-4.6-.4zM346.6 321.7c-.8 2.1.6 3.5 2.7 2.7 1.3-.5 1.4-1 .6-2.5-1.2-2.3-2.5-2.4-3.3-.2zM60.7 321.7c-1.4 1.3-.7 3.3 1.1 3.3 2.4 0 3.2-.8 2.5-2.6-.5-1.5-2.5-1.9-3.6-.7zM340.3 328.6c-.8 2 1.7 3.6 3.4 2.2 1-.8 1-1.4.2-2.4-1.5-1.8-2.8-1.8-3.6.2zM66.5 329c-.8 1.3.3 3 2 3 1.4 0 2.7-2.4 1.8-3.4-1-.9-3.1-.7-3.8.4zM72.7 335.3c-.3.8-.1 2 .3 2.7.7 1.1 1.1 1.1 2.4.1 1.2-1.1 1.4-1.7.5-2.7-1.4-1.8-2.5-1.8-3.2-.1zM334.7 334.7c-1.4 1.3-.7 3.3 1.1 3.3 2.4 0 3.2-.8 2.5-2.6-.5-1.5-2.5-1.9-3.6-.7zM79.3 341.6c-.7 1.9 1.1 3.9 2.6 3 1.6-1 1.3-3.3-.4-4-.9-.3-1.8.1-2.2 1zM328 341c-1.3.8-1.3 1.1.2 2.7 2.1 2 4.3.6 3.2-2-.7-1.9-1.3-2.1-3.4-.7zM86.7 346.6c-1.5 1.5-.7 4.5 1.1 4.2.9-.2 1.7-1.2 1.7-2.2 0-2-1.6-3.1-2.8-2zM321.1 347.4c-.9 1-.8 1.6.4 2.6 1.9 1.6 4.1-.1 3.2-2.4-.8-2-2.1-2-3.6-.2zM314.1 352.4c-1.4 1.7-.7 3.6 1.4 3.6 2.2 0 2.9-2 1.3-3.6-1.3-1.3-1.6-1.3-2.7 0zM93.3 353.6c-.8 2 .8 3.6 2.6 2.5 1.5-1 .8-4.1-.9-4.1-.6 0-1.3.7-1.7 1.6zM101.2 358.2c-1.6 1.6-1.5 2.5.1 3.1 2.1.8 3.9-.7 3.1-2.6-.7-2-1.6-2.1-3.2-.5zM306.3 358.6c-.8 2 1.7 3.6 3.4 2.2 1-.8 1-1.4.2-2.4-1.5-1.8-2.8-1.8-3.6.2zM108.4 363.5c-1 2.4.5 3.6 2.7 2.4 1.6-.8 1.8-1.3.8-2.5-1.5-1.8-2.8-1.8-3.5.1zM298.5 363c-.4.7-.3 1.6.3 2.2 1.4 1.4 4.5.2 4-1.5-.6-1.6-3.4-2.1-4.3-.7zM291.1 367.3c-1.4 1.7.3 4.1 2.3 3.4.9-.4 1.6-1.3 1.6-2.1 0-1.9-2.6-2.8-3.9-1.3zM116.2 368.7c.5 2.6 3.8 2.9 3.8.4 0-1.5-.6-2.1-2.1-2.1-1.4 0-1.9.5-1.7 1.7zM125.2 371.2c-1.8 1.8-1.4 3.8.7 3.8 2.3 0 3.4-2.5 1.7-3.9-.9-.7-1.6-.7-2.4.1zM283.1 371.3c-1.4 1.7.3 4.1 2.3 3.4.9-.4 1.6-1.3 1.6-2.1 0-1.9-2.6-2.8-3.9-1.3zM133.2 374.9c-1.5.9-.5 4.1 1.3 4.1.8 0 1.7-.5 2.1-1.1.9-1.5-1.8-4-3.4-3zM274.3 375.6c-.9 2.3 1.3 4 3.2 2.4 1.2-1 1.3-1.6.4-2.6-1.5-1.8-2.8-1.8-3.6.2zM141.6 377.7c-1.4 1.5-.5 4.3 1.4 4.3 1.3 0 2-.7 2-1.9 0-1.9-2.3-3.5-3.4-2.4zM266.6 377.7c-.3.4-.6 1.5-.6 2.5 0 2.4 3.3 2.1 3.8-.3.3-1.7-2.1-3.3-3.2-2.2zM149.7 382.1c-.6 2.1 1.4 3.6 3.3 2.4 1.5-1 1.2-2.3-.9-3.4-1.5-.9-2-.7-2.4 1zM258.1 381c-1.4.8-.8 4 .7 4 .5 0 1.5-.6 2.1-1.4 1.5-1.7-.8-3.9-2.8-2.6zM158.5 384c-.4.7-.3 1.6.3 2.2 1.4 1.4 4.5.2 4-1.5-.6-1.6-3.4-2.1-4.3-.7zM248.4 384.1c-.9 1.5 1.1 3.3 3 2.6.9-.4 1.3-1.3 1-2.2-.7-1.7-3-2-4-.4zM167.4 386.1c-.9 1.5 1.1 3.3 3 2.6.9-.4 1.3-1.3 1-2.2-.7-1.7-3-2-4-.4zM239.5 386c-.4.7-.3 1.6.3 2.2 1.4 1.4 4.5.2 4-1.5-.6-1.6-3.4-2.1-4.3-.7zM177.3 386.7c-1.5.6-1.7 2.9-.3 3.8.5.3 1.7.2 2.5-.2 1.2-.7 1.3-1.2.3-2.5-.7-.9-1.9-1.4-2.5-1.1zM231.1 386.9c-1.5 1-.3 4.1 1.5 4.1.8 0 1.4-.2 1.4-.4s.3-1.1.6-1.9c.6-1.7-1.7-2.9-3.5-1.8zM185.6 388.6c-.7 1.9.1 3.4 1.9 3.4 2.2 0 2.6-2.9.6-4-1.5-.7-2-.6-2.5.6zM221.9 388.6c-1 1.3-1 1.7.2 2.5 2.7 1.7 4.4.4 3.3-2.5-.8-2-1.8-2-3.5 0zM194.6 388.9c-.7 1.1.3 4.1 1.3 4.1 1.4 0 2.9-2.3 2.4-3.6-.6-1.6-2.9-1.9-3.7-.5zM204.1 389.4c-1.4 1.7-.7 3.6 1.4 3.6 2.2 0 2.9-2 1.3-3.6-1.3-1.3-1.6-1.3-2.7 0zM213 389c-1.3.8-1.3 1.2.3 2.7 1.5 1.6 1.9 1.6 2.7.3 1.8-2.8-.2-4.8-3-3z"/></svg>